<?xml version="1.0" standalone="yes"?>
<svg xmlns="http://www.w3.org/2000/svg" width="150" height="132">
<path style="fill:#ffffff; stroke:none;" d="M0 0L0 132L150 132L150 0L0 0z"/>
<path style="fill:#ffddd6; stroke:none;" d="M78 34C84.2076 32.5221 90.6537 33 97 33C92.7022 31.1966 81.2212 30.3137 78 34z"/>
<path style="fill:#d17b73; stroke:none;" d="M79 33C84.7146 35.398 92.8308 34 99 34C93.2853 31.602 85.1692 33 79 33z"/>
<path style="fill:#ffcbc3; stroke:none;" d="M99.6667 33.3333C99.2222 33.7778 100.278 33.7222 100.333 33.6667C100.778 33.2222 99.7222 33.2778 99.6667 33.3333z"/>
<path style="fill:#ffe7de; stroke:none;" d="M101 33C102.223 34.1952 102.42 34.3164 104 35C102.777 33.8048 102.58 33.6836 101 33z"/>
<path style="fill:#f09d98; stroke:none;" d="M77 34L76 36C77.2627 35.0287 77.3919 35.3062 77 34z"/>
<path style="fill:#db5e59; stroke:none;" d="M78 34C83.1103 36.1444 89.5257 34.7295 95 35.0432C98.6298 35.2512 101.683 36.6487 105 38C100.868 30.9272 85.2676 34 78 34z"/>
<path style="fill:#fd6151; stroke:none;" d="M69 45C75.0892 46.4497 85.5579 43.6084 90.6821 47.0278C93.2709 48.7553 92.9805 52.2748 92.9992 55C93.0428 61.3327 93 67.6671 93 74C110.004 67.9918 103.788 52.4924 107 39C100.011 34.9411 93.8836 34.9965 86 35C83.1808 35.0013 79.8382 34.5803 77.2855 36.0278C73.8816 37.9579 71.1962 41.8703 69 45z"/>
<path style="fill:#e58e89; stroke:none;" d="M75 36L76 37L75 36z"/>
<path style="fill:#d15c54; stroke:none;" d="M62 49C66.0997 56.3717 64 67.7536 64 76C66.2953 70.5301 64.9879 62.8939 65 57C65.005 54.5852 64.6115 51.4403 66.0278 49.3179C68.1997 46.0631 73.6592 47.0002 77 47C80.694 46.9998 87.5214 45.7282 90.3966 48.6034C92.0516 50.2584 91.9547 52.8397 91.9954 55C92.0862 59.829 94.2381 72.932 89.6821 75.9722C87.5597 77.3885 84.4148 76.995 82 77L66 77C72.4448 79.7044 82.0323 78 89 78C88.0143 79.4785 88 79.2032 88 81C91.245 78.7092 93.7092 76.245 96 73C94.2032 73 94.4785 73.0143 93 74L93 55C92.995 52.5803 93.5645 48.7448 91.3966 47.0278C89.508 45.532 86.236 46.0046 84 46C78.8945 45.9895 74.0327 45.9343 69 45C71.5448 42.4364 73.9242 39.9523 76 37C70.3961 39.6133 66.3323 44.6677 62 49z"/>
<path style="fill:#fc9f9d; stroke:none;" d="M105 37L106 38L105 37z"/>
<path style="fill:#e65c55; stroke:none;" d="M106 40L106 64C108.349 58.4031 108.349 45.5969 106 40z"/>
<path style="fill:#ffb4ae; stroke:none;" d="M107 40L107 43C107.696 41.4463 107.696 41.5537 107 40z"/>
<path style="fill:#ffe9e7; stroke:none;" d="M108 40C108 48.3388 108.527 56.7737 107 65L110 64C108.177 56.342 111.002 47.1537 108 40z"/>
<path style="fill:#e77e79; stroke:none;" d="M107 43L107 63C109.087 58.0273 109.087 47.9727 107 43z"/>
<path style="fill:#feafa7; stroke:none;" d="M65 45L66 46L65 45z"/>
<path style="fill:#f09d98; stroke:none;" d="M64 46L65 47L64 46z"/>
<path style="fill:#efa49f; stroke:none;" d="M63 47L64 48L63 47z"/>
<path style="fill:#feafa7; stroke:none;" d="M65 76C68.2096 68.3512 66 56.2878 66 48L91 48C85.604 45.7357 77.8236 46.8945 72.0008 47.0046C69.6925 47.0483 66.7915 46.9034 65.6034 49.3179C64.409 51.7453 65.0002 55.3798 65 58L65 76z"/>
<path style="fill:#f09d98; stroke:none;" d="M62 48L63 49L62 48z"/>
<path style="fill:#ffeeec; stroke:none;" d="M66 48L66 76L91 76L91 48L66 48z"/>
<path style="fill:#efa49f; stroke:none;" d="M91 48L91 76C93.6044 69.7934 93.6044 54.2066 91 48z"/>
<path style="fill:#e58e89; stroke:none;" d="M61 49L62 50L61 49z"/>
<path style="fill:#fffefc; stroke:none;" d="M67 49L67 75L90 75L90 49L67 49z"/>
<path style="fill:#eb615f; stroke:none;" d="M76 90C69.6157 87.321 61.3924 90.5973 55.1088 86.9761C51.0819 84.6554 51.0224 80.1058 51.0008 76C50.9793 71.9213 50.2607 66.8783 51.7423 63C53.6776 57.9338 58.9164 54.3775 62 50C50.1508 55.5257 49.9956 64.5594 50 76C50.0016 80.2203 49.4253 85.3837 53.2284 88.2577C58.4165 92.1783 69.7962 90 76 90z"/>
<path style="fill:#fb6054; stroke:none;" d="M85 81C87.209 80.3161 87.7034 79.9201 89 78C83.2815 78 70.2224 80.4353 65.8935 76.1065C63.7914 74.0044 64.0186 70.7336 64.0008 68L64 50C52.7564 55.2433 50.9957 63.82 51 75C51.0015 78.9808 50.2936 84.5131 54.2284 86.9761C56.7958 88.5832 61.0468 88.7081 64 88.9105C71.8531 89.4488 83.3712 91.1013 85 81z"/>
<path style="fill:#ffcbc3; stroke:none;" d="M55 54L56 55L55 54z"/>
<path style="fill:#ffede6; stroke:none;" d="M50 59C52.2167 57.8369 53.3942 56.9136 55 55C52.2183 55.8125 51.3726 56.4527 50 59z"/>
<path style="fill:#ffb4ae; stroke:none;" d="M51 58L52 59L51 58z"/>
<path style="fill:#feafa7; stroke:none;" d="M50 59L51 60L50 59M49 60L50 61L49 60z"/>
<path style="fill:#fff6ef; stroke:none;" d="M47 61C47 69.0803 44.4514 82.1819 50.189 88.6705C54.2706 93.2863 59.3275 92.9996 65 93C69.2036 93.0003 74.7143 93.9209 78.7106 92.436C84.327 90.349 94.0107 80.4903 96 75C89.3374 79.4072 84.4745 87.1401 77.7145 90.9722C75.1622 92.4191 71.8189 91.9998 69 92C61.1816 92.0005 53.3111 91.0771 49.6528 82.9992C46.473 75.9779 49.8724 67.8453 47 61z"/>
<path style="fill:#ffd7ce; stroke:none;" d="M48 61L48 80C50.0196 75.1871 50.0196 65.8129 48 61z"/>
<path style="fill:#cf7369; stroke:none;" d="M49 61L49 82C51.153 76.8692 51.153 66.1308 49 61z"/>
<path style="fill:#dc6762; stroke:none;" d="M100 70C102.508 68.2048 104.205 66.5075 106 64C102.896 65.4821 101.482 66.8959 100 70z"/>
<path style="fill:#feafa7; stroke:none;" d="M106 64L107 65L106 64z"/>
<path style="fill:#ffbeb8; stroke:none;" d="M103 67L104 68L103 67z"/>
<path style="fill:#f09d98; stroke:none;" d="M97 72L98 73L97 72M96 73L97 74L96 73M95 74L96 75L95 74M94 75L95 76L94 75z"/>
<path style="fill:#ffb4ae; stroke:none;" d="M66 76C72.9279 78.9071 83.503 77 91 77C84.0721 74.0929 73.497 76 66 76z"/>
<path style="fill:#feafa7; stroke:none;" d="M93 76L94 77L93 76M92 77L93 78L92 77z"/>
<path style="fill:#ffb4ae; stroke:none;" d="M91 78L92 79L91 78z"/>
<path style="fill:#db5e59; stroke:none;" d="M85 84C86.4566 82.8966 86.8966 82.4566 88 81C85.636 81.4825 85.4824 81.636 85 84z"/>
<path style="fill:#ffcbc3; stroke:none;" d="M49.3333 82.6667C49.2778 82.7222 49.2222 83.7778 49.6667 83.3333C49.7222 83.2778 49.7778 82.2222 49.3333 82.6667z"/>
<path style="fill:#fc9f9d; stroke:none;" d="M50 85L51 86L50 85z"/>
<path style="fill:#f09d98; stroke:none;" d="M82 86L83 87L82 86z"/>
<path style="fill:#efa49f; stroke:none;" d="M81 87L82 88L81 87z"/>
<path style="fill:#f09d98; stroke:none;" d="M80 88L81 89L80 88z"/>
<path style="fill:#ffb4ae; stroke:none;" d="M54 89L55 90L54 89z"/>
<path style="fill:#cf7369; stroke:none;" d="M59 90C63.2978 91.8034 74.7788 92.6863 78 89C71.6776 90.1738 65.4081 90 59 90z"/>
<path style="fill:#fc9f9d; stroke:none;" d="M79 89L80 90L79 89z"/>
<path style="fill:#efa49f; stroke:none;" d="M56 90C57.2483 90.6848 57.5484 90.7488 59 91C57.7516 90.3152 57.4516 90.2512 56 90M78 90L79 91L78 90z"/>
<path style="fill:#ffd7ce; stroke:none;" d="M59 91C64.7147 93.398 72.8308 92 79 92C73.2853 89.602 65.1692 91 59 91z"/>
</svg>
