<?xml version="1.0" standalone="no"?>
<!DOCTYPE svg PUBLIC "-//W3C//DTD SVG 20010904//EN"
 "http://www.w3.org/TR/2001/REC-SVG-20010904/DTD/svg10.dtd">
<svg version="1.0" xmlns="http://www.w3.org/2000/svg"
 width="150.000000pt" height="132.000000pt" viewBox="0 0 150.000000 132.000000"
 preserveAspectRatio="xMidYMid meet">
<metadata>
Created by potrace 1.16, written by Peter Selinger 2001-2019
</metadata>
<g transform="translate(0.000000,132.000000) scale(0.100000,-0.100000)"
fill="#000000" stroke="none">
<path d="M642 830 l-152 -142 0 -99 c0 -174 25 -199 192 -199 l103 1 148 137
148 137 -3 122 c-3 119 -4 123 -31 150 -26 27 -32 28 -140 31 l-112 4 -153
-142z m273 -150 l0 -145 -125 0 -125 0 -3 134 c-1 74 0 141 3 148 3 11 32 13
127 11 l123 -3 0 -145z"/>
</g>
</svg>
